<svg width="137" height="46" viewBox="0 0 137 46" fill="none" xmlns="http://www.w3.org/2000/svg">
<g filter="url(#filter0_d_2904_41489)">
<path d="M80.416 30.126C79.048 30.126 77.86 29.82 76.852 29.208C75.856 28.596 75.094 27.78 74.566 26.76C74.038 25.728 73.774 24.594 73.774 23.358C73.774 22.05 74.056 20.88 74.62 19.848C75.196 18.816 76 18.012 77.032 17.436C78.064 16.848 79.234 16.554 80.542 16.554C81.13 16.554 81.676 16.62 82.18 16.752C82.696 16.872 83.122 17.016 83.458 17.184C83.794 17.34 84.016 17.472 84.124 17.58L83.242 19.38C82.51 18.732 81.556 18.408 80.38 18.408C79.552 18.408 78.802 18.612 78.13 19.02C77.458 19.428 76.93 20.01 76.546 20.766C76.162 21.522 75.97 22.398 75.97 23.394C75.97 24.306 76.138 25.134 76.474 25.878C76.822 26.622 77.326 27.21 77.986 27.642C78.646 28.074 79.432 28.29 80.344 28.29C81.4 28.29 82.42 27.99 83.404 27.39L83.998 29.1C83.734 29.34 83.248 29.574 82.54 29.802C81.844 30.018 81.136 30.126 80.416 30.126ZM86.1635 21.738H88.1075V23.358C88.2995 22.806 88.6115 22.362 89.0435 22.026C89.4755 21.69 89.9675 21.522 90.5195 21.522C90.9035 21.522 91.1675 21.558 91.3115 21.63L91.0415 23.592C90.9335 23.52 90.6995 23.484 90.3395 23.484C89.7755 23.484 89.2595 23.664 88.7915 24.024C88.3355 24.384 88.1075 24.96 88.1075 25.752V30H86.1635V21.738ZM96.7882 30.18C95.9362 30.18 95.1802 29.988 94.5202 29.604C93.8602 29.22 93.3502 28.698 92.9902 28.038C92.6302 27.378 92.4502 26.646 92.4502 25.842C92.4502 25.05 92.6242 24.324 92.9722 23.664C93.3322 23.004 93.8422 22.482 94.5022 22.098C95.1622 21.714 95.9242 21.522 96.7882 21.522C97.6522 21.522 98.4082 21.714 99.0562 22.098C99.7162 22.482 100.22 23.004 100.568 23.664C100.928 24.324 101.108 25.05 101.108 25.842C101.108 26.646 100.928 27.378 100.568 28.038C100.208 28.698 99.6982 29.22 99.0382 29.604C98.3902 29.988 97.6402 30.18 96.7882 30.18ZM96.8422 28.596C97.5382 28.596 98.0842 28.338 98.4802 27.822C98.8882 27.306 99.0922 26.658 99.0922 25.878C99.0922 25.098 98.8762 24.444 98.4442 23.916C98.0122 23.376 97.4422 23.106 96.7342 23.106C96.0502 23.106 95.4982 23.37 95.0782 23.898C94.6702 24.426 94.4662 25.086 94.4662 25.878C94.4662 26.646 94.6882 27.294 95.1322 27.822C95.5762 28.338 96.1462 28.596 96.8422 28.596ZM108.474 25.41L106.026 30H105.684L102.21 21.738H104.298L106.08 26.544L108.438 21.738H108.51L110.886 26.508L112.668 21.738H114.72L111.264 30H110.922L108.474 25.41ZM119.748 30.18C119.004 30.18 118.314 30.006 117.678 29.658C117.054 29.298 116.55 28.794 116.166 28.146C115.794 27.486 115.608 26.718 115.608 25.842C115.608 24.534 115.974 23.49 116.706 22.71C117.438 21.918 118.428 21.522 119.676 21.522C120.372 21.522 121.008 21.696 121.584 22.044C122.16 22.38 122.55 22.788 122.754 23.268L122.664 21.864V16.77H124.572V30H122.718L122.682 28.542C122.478 28.974 122.106 29.358 121.566 29.694C121.026 30.018 120.42 30.18 119.748 30.18ZM120.072 28.542C120.756 28.542 121.332 28.308 121.8 27.84C122.268 27.36 122.502 26.736 122.502 25.968V25.842C122.502 25.326 122.394 24.864 122.178 24.456C121.962 24.048 121.668 23.73 121.296 23.502C120.924 23.274 120.516 23.16 120.072 23.16C119.304 23.16 118.71 23.412 118.29 23.916C117.87 24.408 117.66 25.05 117.66 25.842C117.66 26.646 117.864 27.3 118.272 27.804C118.692 28.296 119.292 28.542 120.072 28.542Z" fill="white" fill-opacity="0.8" shape-rendering="crispEdges"/>
</g>
<path d="M5.875 45L35.125 45L40 35.4L8.3125 35.4L13.1875 23.4L0.999999 21L1 40.2L5.875 45Z" fill="#263238"/>
<path d="M40 35.4L35.125 45L5.875 45L1 40.2L0.999999 21M40 35.4L8.3125 35.4L13.1875 23.4M40 35.4L35.125 30.6L19.2812 30.6L22.9375 23.4M13.1875 23.4L0.999999 21M13.1875 23.4L22.9375 23.4M0.999999 21L10.75 21L22.9375 23.4" stroke="url(#paint0_linear_2904_41489)" stroke-width="0.5"/>
<path d="M8.3125 35.4L40 35.4L35.125 30.6L19.2812 30.6L22.9375 23.4L13.1875 23.4L8.3125 35.4Z" fill="url(#paint1_linear_2904_41489)"/>
<path d="M40 35.4L35.125 45L5.875 45L1 40.2L0.999999 21M40 35.4L8.3125 35.4L13.1875 23.4M40 35.4L35.125 30.6L19.2812 30.6L22.9375 23.4M13.1875 23.4L0.999999 21M13.1875 23.4L22.9375 23.4M0.999999 21L10.75 21L22.9375 23.4" stroke="url(#paint2_linear_2904_41489)" stroke-width="0.5"/>
<path d="M0.999999 21L13.1875 23.4L22.9375 23.4L10.75 21L0.999999 21Z" fill="url(#paint3_linear_2904_41489)"/>
<path d="M40 35.4L35.125 45L5.875 45L1 40.2L0.999999 21M40 35.4L8.3125 35.4L13.1875 23.4M40 35.4L35.125 30.6L19.2812 30.6L22.9375 23.4M13.1875 23.4L0.999999 21M13.1875 23.4L22.9375 23.4M0.999999 21L10.75 21L22.9375 23.4" stroke="url(#paint4_linear_2904_41489)" stroke-width="0.5"/>
<path d="M50.125 1L20.875 1L16 10.6L47.6875 10.6L42.8125 22.6L55 25L55 5.8L50.125 1Z" fill="#263238"/>
<path d="M16 10.6L20.875 1L50.125 1L55 5.8L55 25M16 10.6L47.6875 10.6L42.8125 22.6M16 10.6L20.875 15.4L36.7188 15.4L33.0625 22.6M42.8125 22.6L55 25M42.8125 22.6L33.0625 22.6M55 25L45.25 25L33.0625 22.6" stroke="url(#paint5_linear_2904_41489)" stroke-width="0.5"/>
<path d="M47.6875 10.6L16 10.6L20.875 15.4L36.7188 15.4L33.0625 22.6L42.8125 22.6L47.6875 10.6Z" fill="url(#paint6_linear_2904_41489)"/>
<path d="M16 10.6L20.875 1L50.125 1L55 5.8L55 25M16 10.6L47.6875 10.6L42.8125 22.6M16 10.6L20.875 15.4L36.7188 15.4L33.0625 22.6M42.8125 22.6L55 25M42.8125 22.6L33.0625 22.6M55 25L45.25 25L33.0625 22.6" stroke="url(#paint7_linear_2904_41489)" stroke-width="0.5"/>
<path d="M55 25L42.8125 22.6L33.0625 22.6L45.25 25L55 25Z" fill="url(#paint8_linear_2904_41489)"/>
<path d="M16 10.6L20.875 1L50.125 1L55 5.8L55 25M16 10.6L47.6875 10.6L42.8125 22.6M16 10.6L20.875 15.4L36.7188 15.4L33.0625 22.6M42.8125 22.6L55 25M42.8125 22.6L33.0625 22.6M55 25L45.25 25L33.0625 22.6" stroke="url(#paint9_linear_2904_41489)" stroke-width="0.5"/>
<defs>
<filter id="filter0_d_2904_41489" x="61.7744" y="4.5542" width="74.7979" height="37.626" filterUnits="userSpaceOnUse" color-interpolation-filters="sRGB">
<feFlood flood-opacity="0" result="BackgroundImageFix"/>
<feColorMatrix in="SourceAlpha" type="matrix" values="0 0 0 0 0 0 0 0 0 0 0 0 0 0 0 0 0 0 127 0" result="hardAlpha"/>
<feOffset/>
<feGaussianBlur stdDeviation="6"/>
<feComposite in2="hardAlpha" operator="out"/>
<feColorMatrix type="matrix" values="0 0 0 0 0.14902 0 0 0 0 0.196078 0 0 0 0 0.219608 0 0 0 0.23 0"/>
<feBlend mode="normal" in2="BackgroundImageFix" result="effect1_dropShadow_2904_41489"/>
<feBlend mode="normal" in="SourceGraphic" in2="effect1_dropShadow_2904_41489" result="shape"/>
</filter>
<linearGradient id="paint0_linear_2904_41489" x1="0.999999" y1="33" x2="40" y2="33" gradientUnits="userSpaceOnUse">
<stop stop-color="#FF1CF7"/>
<stop offset="1" stop-color="#00F0FF"/>
</linearGradient>
<linearGradient id="paint1_linear_2904_41489" x1="21.9625" y1="24.12" x2="39.0947" y2="36.1284" gradientUnits="userSpaceOnUse">
<stop stop-color="#FF1CF7"/>
<stop offset="1" stop-color="#664688"/>
</linearGradient>
<linearGradient id="paint2_linear_2904_41489" x1="0.999999" y1="33" x2="40" y2="33" gradientUnits="userSpaceOnUse">
<stop stop-color="#FF1CF7"/>
<stop offset="1" stop-color="#00F0FF"/>
</linearGradient>
<linearGradient id="paint3_linear_2904_41489" x1="12.9438" y1="23.4" x2="1.01502" y2="20.9275" gradientUnits="userSpaceOnUse">
<stop stop-color="#FF1CF7"/>
<stop offset="1" stop-color="#664688"/>
</linearGradient>
<linearGradient id="paint4_linear_2904_41489" x1="0.999999" y1="33" x2="40" y2="33" gradientUnits="userSpaceOnUse">
<stop stop-color="#FF1CF7"/>
<stop offset="1" stop-color="#00F0FF"/>
</linearGradient>
<linearGradient id="paint5_linear_2904_41489" x1="55" y1="13" x2="16" y2="13" gradientUnits="userSpaceOnUse">
<stop stop-color="#FF1CF7"/>
<stop offset="1" stop-color="#00F0FF"/>
</linearGradient>
<linearGradient id="paint6_linear_2904_41489" x1="43.3" y1="21.64" x2="15.879" y2="10.3031" gradientUnits="userSpaceOnUse">
<stop stop-color="#00F0FF"/>
<stop offset="1" stop-color="#306878"/>
</linearGradient>
<linearGradient id="paint7_linear_2904_41489" x1="55" y1="13" x2="16" y2="13" gradientUnits="userSpaceOnUse">
<stop stop-color="#FF1CF7"/>
<stop offset="1" stop-color="#00F0FF"/>
</linearGradient>
<linearGradient id="paint8_linear_2904_41489" x1="43.0563" y1="22.6" x2="54.985" y2="25.0725" gradientUnits="userSpaceOnUse">
<stop stop-color="#00F0FF"/>
<stop offset="1" stop-color="#306878"/>
</linearGradient>
<linearGradient id="paint9_linear_2904_41489" x1="55" y1="13" x2="16" y2="13" gradientUnits="userSpaceOnUse">
<stop stop-color="#FF1CF7"/>
<stop offset="1" stop-color="#00F0FF"/>
</linearGradient>
</defs>
</svg>
